HIERARCHY
ROOT Hips
{
 OFFSET 0.000000 0.000000 0.000000
 CHANNELS 6 Xposition Yposition Zposition Yrotation Xrotation Zrotation
 JOINT Chest
 {
  OFFSET 0.000000 10.383400 0.001500
  CHANNELS 3 Yrotation Xrotation Zrotation
  JOINT Chest2
  {
   OFFSET 0.000000 10.418200 -0.003100
   CHANNELS 3 Yrotation Xrotation Zrotation
   JOINT Chest3
   {
    OFFSET 0.000000 10.375100 0.000000
    CHANNELS 3 Yrotation Xrotation Zrotation
    JOINT Chest4
    {
     OFFSET 0.000000 10.364600 0.000000
     CHANNELS 3 Yrotation Xrotation Zrotation
     JOINT Neck
     {
      OFFSET 0.000000 15.642200 0.000000
      CHANNELS 3 Yrotation Xrotation Zrotation
      JOINT Head
      {
       OFFSET 0.000000 9.697300 -0.006500
       CHANNELS 3 Yrotation Xrotation Zrotation
       End Site
       {
        OFFSET 0.000000 18.492200 -0.003400
       }
      }
     }
     JOINT RightCollar
     {
      OFFSET -3.166800 10.349300 0.000000
      CHANNELS 3 Yrotation Xrotation Zrotation
      JOINT RightShoulder
      {
       OFFSET -14.729700 0.000000 0.000000
       CHANNELS 3 Yrotation Xrotation Zrotation
       JOINT RightElbow
       {
        OFFSET 0.000000 -32.224300 0.000000
        CHANNELS 3 Yrotation Xrotation Zrotation
        JOINT RightWrist
        {
         OFFSET 0.000000 -26.084100 0.000000
         CHANNELS 3 Yrotation Xrotation Zrotation
         End Site
         {
          OFFSET 0.000000 -19.319400 0.000000
         }
        }
       }
      }
     }
     JOINT LeftCollar
     {
      OFFSET 3.166800 10.349300 0.000000
      CHANNELS 3 Yrotation Xrotation Zrotation
      JOINT LeftShoulder
      {
       OFFSET 14.729700 0.000000 0.000000
       CHANNELS 3 Yrotation Xrotation Zrotation
       JOINT LeftElbow
       {
        OFFSET 0.000000 -32.224300 0.000000
        CHANNELS 3 Yrotation Xrotation Zrotation
        JOINT LeftWrist
        {
         OFFSET 0.000000 -26.084100 0.000000
         CHANNELS 3 Yrotation Xrotation Zrotation
         End Site
         {
          OFFSET 0.000000 -19.319400 0.000000
         }
        }
       }
      }
     }
    }
   }
  }
 }
 JOINT RightHip
 {
  OFFSET -8.428900 -0.007500 -0.000800
  CHANNELS 3 Yrotation Xrotation Zrotation
  JOINT RightKnee
  {
   OFFSET 0.000000 -43.834600 0.000700
   CHANNELS 3 Yrotation Xrotation Zrotation
   JOINT RightAnkle
   {
    OFFSET 0.000000 -42.757000 0.001200
    CHANNELS 3 Yrotation Xrotation Zrotation
    JOINT RightToe
    {
     OFFSET 0.000000 -6.946900 15.649300
     CHANNELS 3 Yrotation Xrotation Zrotation
     End Site
     {
      OFFSET 0.000000 -1.580800 6.825800
     }
    }
   }
  }
 }
 JOINT LeftHip
 {
  OFFSET 8.428900 -0.007500 -0.000800
  CHANNELS 3 Yrotation Xrotation Zrotation
  JOINT LeftKnee
  {
   OFFSET 0.000000 -43.834600 0.000700
   CHANNELS 3 Yrotation Xrotation Zrotation
   JOINT LeftAnkle
   {
    OFFSET 0.000000 -42.757000 0.001200
    CHANNELS 3 Yrotation Xrotation Zrotation
    JOINT LeftToe
    {
     OFFSET 0.000000 -6.946900 15.649300
     CHANNELS 3 Yrotation Xrotation Zrotation
     End Site
     {
      OFFSET 0.000000 -1.580800 6.825800
     }
    }
   }
  }
 }
}
MOTION
Frames: 11
Frame Time: 0.008333
129.459400 126.858423 7.312759 -12.889433 -26.501183 -2.955094 -1.424374 22.159154 2.510532 -0.243280 3.100995 0.374680 -0.412302 5.002940 0.611656 -1.241004 18.757413 2.138203 2.551110 11.192782 -1.679688 5.662597 -14.830469 -4.363003 -6.835291 -6.106200 -8.175021 -4.006156 -13.989959 -2.538424 -39.084842 -78.722037 44.447104 2.973777 -11.433255 -21.177379 -0.388207 -6.898250 0.225933 12.690643 -7.903331 4.287928 99.585023 -79.754027 -102.379420 -5.375825 -10.284988 19.071401 -4.108617 -42.630800 -0.475962 -17.111787 71.017134 -15.228695 -0.794431 1.571046 4.081155 0.002067 0.002553 0.000918 -7.259230 -36.490487 -5.491030 0.184978 65.004791 2.637244 -13.418173 -0.824003 -5.040105 -0.001518 0.000305 -0.000674
129.459272 126.856671 7.309790 -12.889645 -26.498438 -2.959516 -1.458899 22.124536 2.519467 -0.258834 3.081703 0.378999 -0.390778 5.027335 0.596436 -1.306523 18.688353 2.164171 2.481781 11.342967 -1.659330 5.478452 -14.600976 -4.255534 -6.768345 -5.984173 -8.277490 -3.308559 -13.549396 -2.978412 -24.644038 -80.629128 30.910373 4.075911 -9.277730 -19.911829 -0.226114 -6.763185 0.234316 12.112766 -7.525885 4.845787 107.747420 -82.533121 -111.058794 -7.401159 -9.028988 18.754531 -4.091486 -42.630326 -0.490477 -17.112724 71.017326 -15.215687 -0.796074 1.577816 4.085135 0.003066 0.002213 0.001361 -7.258070 -36.489478 -5.485593 0.176776 65.005432 2.627334 -13.411387 -0.823806 -5.038516 -0.001401 0.001123 -0.000622
129.460309 126.854815 7.306543 -12.886854 -26.500054 -2.957840 -1.494658 22.093709 2.525389 -0.263187 3.075005 0.380304 -0.382410 5.040584 0.582748 -1.343587 18.646922 2.189541 2.390604 11.498270 -1.629248 5.280885 -14.320389 -4.148463 -6.696808 -5.911202 -8.355466 -2.562196 -13.100850 -3.341099 -7.218195 -81.610551 14.306332 5.039420 -7.211661 -18.434648 -0.114519 -6.667181 0.242459 11.526941 -7.199380 5.391957 121.984967 -84.834971 -125.868733 -9.057724 -7.750827 18.205802 -4.069325 -42.626751 -0.513486 -17.123493 71.019798 -15.219410 -0.794518 1.581882 4.098286 0.001983 0.002926 0.000880 -7.256270 -36.488546 -5.486551 0.165170 65.003421 2.618996 -13.434776 -0.810640 -5.048004 -0.002550 0.001374 -0.001132
129.461681 126.853394 7.303518 -12.885259 -26.511275 -2.952071 -1.526924 22.071970 2.531078 -0.266853 3.069562 0.382150 -0.393926 5.029849 0.581691 -1.359381 18.634069 2.203518 2.294345 11.690178 -1.601175 5.072826 -13.971744 -4.041428 -6.608320 -5.856695 -8.425480 -1.783734 -12.671862 -3.636575 10.174265 -81.646887 -2.342557 5.774745 -5.205101 -16.860497 -0.039774 -6.587860 0.237513 10.934315 -6.923274 5.919486 146.337761 -86.373818 -150.843671 -10.452830 -6.481226 17.441526 -4.002796 -42.621030 -0.568735 -17.177123 71.029686 -15.242498 -0.790924 1.596292 4.124594 -0.003258 0.001492 -0.001446 -7.253106 -36.475869 -5.491965 0.137159 64.999170 2.588998 -13.429262 -0.802713 -5.049532 -0.002263 0.001012 -0.001005
129.461368 126.852900 7.300654 -12.891977 -26.535646 -2.950262 -1.545288 22.064471 2.546461 -0.269876 3.065509 0.384208 -0.403049 5.017886 0.584857 -1.373354 18.628095 2.215309 2.200118 11.926451 -1.571937 4.866419 -13.540546 -3.931315 -6.505074 -5.814052 -8.479896 -1.006906 -12.281616 -3.877223 23.993855 -80.979137 -15.462424 6.273692 -3.184104 -15.307772 0.003862 -6.526530 0.227133 10.318820 -6.692768 6.421399 178.286107 -86.927362 176.526772 -11.697023 -5.248080 16.513156 -3.962918 -42.604359 -0.593446 -17.203208 71.037840 -15.250377 -0.790119 1.626669 4.143293 0.001259 0.001796 0.000559 -7.245852 -36.448858 -5.488968 0.099837 64.995788 2.545153 -13.403413 -0.795003 -5.046808 -0.002289 0.000274 -0.001016
129.461607 126.852328 7.296335 -12.899343 -26.559892 -2.946203 -1.556518 22.066037 2.555992 -0.266240 3.071234 0.379330 -0.418023 4.990920 0.603374 -1.382352 18.637632 2.213724 2.112597 12.193801 -1.523344 4.670672 -13.042628 -3.812588 -6.393251 -5.780819 -8.501192 -0.261862 -11.944661 -4.064991 33.311145 -79.979798 -24.104785 6.587905 -1.084025 -13.816481 0.027580 -6.490390 0.207238 9.647819 -6.511040 6.908057 -154.614890 -86.832865 148.672658 -12.824850 -4.068127 15.515510 -3.924954 -42.589283 -0.611820 -17.240683 71.044882 -15.280412 -0.787780 1.645067 4.158454 0.003028 -0.001723 0.001344 -7.238741 -36.423028 -5.487423 0.088433 64.989566 2.527194 -13.392294 -0.786440 -5.048383 -0.001935 -0.000718 -0.000859
129.462180 126.851482 7.289847 -12.900635 -26.579465 -2.945477 -1.560733 22.078422 2.558837 -0.281108 3.050557 0.405878 -0.425776 4.984551 0.600153 -1.376701 18.661269 2.190086 2.032136 12.470596 -1.440199 4.481965 -12.524647 -3.677600 -6.286768 -5.743247 -8.481035 0.440313 -11.674151 -4.180795 39.043548 -78.935961 -29.208142 6.842072 1.103751 -12.353849 0.033365 -6.479796 0.214475 8.901448 -6.372073 7.344283 -135.192669 -86.652461 128.439440 -13.825351 -2.948825 14.520928 -3.908996 -42.575341 -0.618526 -17.240677 71.049080 -15.285729 -0.788247 1.658569 4.171937 0.002632 -0.001748 0.001168 -7.229061 -36.401649 -5.476647 0.037245 64.977863 2.467175 -13.389431 -0.772348 -5.042784 0.000062 -0.001435 0.000027
129.464230 126.849976 7.280691 -12.901112 -26.589073 -2.940728 -1.577881 22.066008 2.571843 -0.277435 3.060816 0.412300 -0.435385 4.977768 0.600972 -1.388259 18.663254 2.203550 1.961730 12.768729 -1.394297 4.293609 -12.041139 -3.522051 -6.168587 -5.668859 -8.494871 1.082791 -11.469656 -4.197512 42.444894 -77.976894 -32.031650 7.180585 3.307330 -10.882144 0.045361 -6.467085 0.196071 8.080393 -6.263406 7.707012 -118.923805 -86.655031 111.331235 -14.701760 -1.887219 13.564979 -3.893077 -42.571687 -0.624400 -17.219749 71.046391 -15.285799 -0.788440 1.675836 4.198191 -0.003862 -0.001627 -0.001714 -7.216149 -36.390581 -5.471780 0.015238 64.956468 2.442174 -13.424243 -0.750173 -5.048348 -0.001995 -0.000969 -0.000886
129.466211 126.852474 7.278176 -12.895548 -26.645288 -2.931664 -1.590012 22.109021 2.577810 -0.272629 3.082536 0.412036 -0.440392 4.994920 0.626295 -1.391659 18.711153 2.230849 1.873596 12.969331 -1.370132 4.107013 -11.633008 -3.356239 -6.082173 -5.651130 -8.508801 1.652622 -11.318818 -4.094808 44.554103 -77.095016 -33.602565 7.629609 5.410787 -9.442949 0.035017 -6.541765 0.151578 7.195282 -6.190372 8.013094 -101.162339 -86.846609 92.720401 -15.468707 -0.878606 12.667536 -3.879338 -42.522402 -0.632380 -17.243725 71.043292 -15.325105 -0.792507 1.689919 4.206676 0.003337 -0.004835 0.001481 -7.201149 -36.326173 -5.482092 0.037309 64.918559 2.444532 -13.452679 -0.716697 -5.047100 -0.003280 -0.003666 -0.001456
129.467876 126.854561 7.273070 -12.887151 -26.691627 -2.930046 -1.584467 22.164591 2.611984 -0.278025 3.095792 0.397093 -0.440549 5.022661 0.637302 -1.391662 18.737708 2.237674 1.797119 13.142670 -1.307897 3.929147 -11.317747 -3.199269 -6.026731 -5.597963 -8.470848 2.156482 -11.201832 -3.864215 45.895927 -76.264201 -34.460783 8.107890 7.275284 -8.141567 0.021966 -6.599844 0.137386 6.265826 -6.159726 8.257768 -78.203460 -87.012184 68.917220 -16.153160 0.076069 11.847896 -3.884651 -42.480018 -0.620461 -17.250408 71.031717 -15.360744 -0.800991 1.705836 4.222652 0.005879 -0.006443 0.002610 -7.193548 -36.270255 -5.490519 0.059738 64.881782 2.454545 -13.450997 -0.693608 -5.059239 -0.003346 -0.005922 -0.001485
129.469855 126.856232 7.265864 -12.876167 -26.728177 -2.932195 -1.587453 22.208348 2.619429 -0.270223 3.122252 0.410147 -0.441036 5.047514 0.643307 -1.386405 18.776248 2.254320 1.722974 13.262745 -1.254073 3.762034 -11.100659 -3.062203 -5.997367 -5.540005 -8.417178 2.589988 -11.090137 -3.515273 46.707432 -75.505924 -34.851344 8.528422 8.792785 -7.067899 -0.043004 -6.596173 0.093090 5.374605 -6.224343 8.455346 -51.643069 -86.789849 41.521406 -16.803354 0.982961 11.117472 -3.897392 -42.446333 -0.598925 -17.257908 71.011174 -15.402577 -0.808456 1.727222 4.241943 0.007204 -0.007225 0.003198 -7.184849 -36.222682 -5.492955 0.071515 64.837456 2.454994 -13.464202 -0.660416 -5.056981 -0.002248 -0.005023 -0.000998
